<mxfile host="www.draw.io" modified="2019-10-25T07:09:49.630Z" agent="Mozilla/5.0 (X11; Linux x86_64) AppleWebKit/537.36 (KHTML, like Gecko) Chrome/76.0.3809.87 Safari/537.36" etag="xGBVSNxCrQmmPJ74e8Iu" version="12.1.5" type="github" pages="1">
  <diagram id="JcPJvcP8vzCySAAviPYO" name="Page-1">
    <mxGraphModel dx="1408" dy="787" grid="1" gridSize="10" guides="1" tooltips="1" connect="1" arrows="1" fold="1" page="1" pageScale="1" pageWidth="827" pageHeight="1169" math="0" shadow="0">
      <root>
        <mxCell id="0"/>
        <mxCell id="1" parent="0"/>
        <mxCell id="76PlY3qgO6dOQQKfIqFN-107" value="auth sessionToken" style="shape=umlLifeline;perimeter=lifelinePerimeter;whiteSpace=wrap;html=1;container=1;collapsible=0;recursiveResize=0;outlineConnect=0;rounded=0;comic=0;align=center;strokeWidth=1;flipH=1;flipV=0;strokeColor=#b46504;labelBorderColor=none;labelBackgroundColor=none;fillColor=#fad7ac;" parent="1" vertex="1">
          <mxGeometry x="255" y="640" width="125" height="720" as="geometry"/>
        </mxCell>
        <mxCell id="76PlY3qgO6dOQQKfIqFN-123" value="" style="html=1;points=[];perimeter=orthogonalPerimeter;rounded=0;comic=0;strokeWidth=1;align=center;strokeColor=#000000;labelBorderColor=none;labelBackgroundColor=none;" parent="76PlY3qgO6dOQQKfIqFN-107" vertex="1">
          <mxGeometry x="58" y="100" width="10" height="160" as="geometry"/>
        </mxCell>
        <mxCell id="3qQfNFwAXlZ41oWte92f-22" value="" style="html=1;points=[];perimeter=orthogonalPerimeter;rounded=0;comic=0;strokeWidth=1;align=center;strokeColor=#000000;labelBorderColor=none;labelBackgroundColor=none;" parent="76PlY3qgO6dOQQKfIqFN-107" vertex="1">
          <mxGeometry x="60" y="300" width="10" height="190" as="geometry"/>
        </mxCell>
        <mxCell id="76PlY3qgO6dOQQKfIqFN-116" value="sessionToken-manager" style="shape=umlLifeline;perimeter=lifelinePerimeter;whiteSpace=wrap;html=1;container=1;collapsible=0;recursiveResize=0;outlineConnect=0;rounded=0;comic=0;align=center;strokeWidth=1;flipH=1;flipV=0;strokeColor=#b46504;labelBorderColor=none;labelBackgroundColor=none;fillColor=#fad7ac;" parent="1" vertex="1">
          <mxGeometry x="648" y="640" width="125" height="720" as="geometry"/>
        </mxCell>
        <mxCell id="3qQfNFwAXlZ41oWte92f-6" value="" style="html=1;points=[];perimeter=orthogonalPerimeter;rounded=0;comic=0;strokeWidth=1;align=center;strokeColor=#000000;labelBorderColor=none;labelBackgroundColor=none;" parent="76PlY3qgO6dOQQKfIqFN-116" vertex="1">
          <mxGeometry x="57.5" y="217" width="10" height="30" as="geometry"/>
        </mxCell>
        <mxCell id="3qQfNFwAXlZ41oWte92f-37" value="" style="html=1;points=[];perimeter=orthogonalPerimeter;rounded=0;comic=0;strokeWidth=1;align=center;strokeColor=#000000;labelBorderColor=none;labelBackgroundColor=none;" parent="76PlY3qgO6dOQQKfIqFN-116" vertex="1">
          <mxGeometry x="57.5" y="400" width="10" height="30" as="geometry"/>
        </mxCell>
        <mxCell id="76PlY3qgO6dOQQKfIqFN-125" value="" style="html=1;points=[];perimeter=orthogonalPerimeter;rounded=0;comic=0;strokeWidth=1;align=center;strokeColor=#000000;labelBorderColor=none;labelBackgroundColor=none;" parent="76PlY3qgO6dOQQKfIqFN-116" vertex="1">
          <mxGeometry x="58" y="120" width="10" height="40" as="geometry"/>
        </mxCell>
        <mxCell id="3qQfNFwAXlZ41oWte92f-26" value="" style="html=1;points=[];perimeter=orthogonalPerimeter;rounded=0;comic=0;strokeWidth=1;align=center;strokeColor=#000000;labelBorderColor=none;labelBackgroundColor=none;" parent="76PlY3qgO6dOQQKfIqFN-116" vertex="1">
          <mxGeometry x="58" y="300" width="10" height="40" as="geometry"/>
        </mxCell>
        <mxCell id="76PlY3qgO6dOQQKfIqFN-36" value="" style="rounded=1;whiteSpace=wrap;html=1;opacity=80;align=left;fillColor=#d0cee2;strokeColor=#56517e;shadow=0;comic=1;" parent="1" vertex="1">
          <mxGeometry x="168.5" y="130" width="170" height="180" as="geometry"/>
        </mxCell>
        <mxCell id="76PlY3qgO6dOQQKfIqFN-37" value="ldap" style="rounded=1;whiteSpace=wrap;html=1;fillColor=#d0cee2;strokeColor=#56517e;shadow=0;comic=1;" parent="1" vertex="1">
          <mxGeometry x="196.5" y="143" width="110" height="40" as="geometry"/>
        </mxCell>
        <mxCell id="76PlY3qgO6dOQQKfIqFN-38" value="wx" style="rounded=1;whiteSpace=wrap;html=1;fillColor=#d0cee2;strokeColor=#56517e;shadow=0;comic=1;" parent="1" vertex="1">
          <mxGeometry x="196.5" y="203" width="110" height="40" as="geometry"/>
        </mxCell>
        <mxCell id="76PlY3qgO6dOQQKfIqFN-39" value="AD" style="rounded=1;whiteSpace=wrap;html=1;fillColor=#d0cee2;strokeColor=#56517e;shadow=0;comic=1;" parent="1" vertex="1">
          <mxGeometry x="196.5" y="258" width="110" height="40" as="geometry"/>
        </mxCell>
        <mxCell id="76PlY3qgO6dOQQKfIqFN-4" value="&lt;b&gt;raging-hub&lt;br&gt;&lt;/b&gt;" style="rounded=0;whiteSpace=wrap;html=1;comic=1;verticalAlign=top;align=left;fillColor=#f5f5f5;strokeColor=#666666;fontColor=#333333;" parent="1" vertex="1">
          <mxGeometry x="417" y="50" width="532" height="260" as="geometry"/>
        </mxCell>
        <mxCell id="76PlY3qgO6dOQQKfIqFN-3" value="&lt;b&gt;redis&lt;/b&gt;" style="rounded=1;whiteSpace=wrap;html=1;comic=1;verticalAlign=top;align=left;fillColor=#f5f5f5;strokeColor=#666666;gradientColor=#b3b3b3;opacity=40;" parent="1" vertex="1">
          <mxGeometry x="741.5" y="430" width="770" height="120" as="geometry"/>
        </mxCell>
        <mxCell id="76PlY3qgO6dOQQKfIqFN-5" value="&lt;b&gt;middleware&lt;/b&gt;" style="rounded=1;whiteSpace=wrap;html=1;comic=1;verticalAlign=top;align=left;fillColor=#f8cecc;strokeColor=#b85450;opacity=50;" parent="1" vertex="1">
          <mxGeometry x="748.5" y="75" width="190" height="135" as="geometry"/>
        </mxCell>
        <mxCell id="76PlY3qgO6dOQQKfIqFN-29" value="oauth2 server" style="rounded=1;whiteSpace=wrap;html=1;fillColor=#b1ddf0;strokeColor=#10739e;shadow=0;comic=1;fontStyle=1" parent="1" vertex="1">
          <mxGeometry x="437" y="75" width="302" height="40" as="geometry"/>
        </mxCell>
        <mxCell id="76PlY3qgO6dOQQKfIqFN-9" value="&lt;b&gt;auth&lt;br&gt;sessionToken&lt;/b&gt;" style="rounded=1;whiteSpace=wrap;html=1;comic=1;verticalAlign=middle;align=center;fillColor=#f8cecc;strokeColor=#b85450;opacity=50;" parent="1" vertex="1">
          <mxGeometry x="806.5" y="111" width="90" height="50" as="geometry"/>
        </mxCell>
        <mxCell id="76PlY3qgO6dOQQKfIqFN-32" value="interface" style="rounded=1;whiteSpace=wrap;html=1;verticalAlign=top;align=left;fillColor=#fff2cc;strokeColor=#d6b656;shadow=0;comic=1;fontStyle=1" parent="1" vertex="1">
          <mxGeometry x="437" y="218" width="302" height="81" as="geometry"/>
        </mxCell>
        <mxCell id="76PlY3qgO6dOQQKfIqFN-33" value="userInfo" style="rounded=0;whiteSpace=wrap;html=1;fillColor=#fad7ac;strokeColor=#b46504;shadow=0;comic=1;opacity=50;" parent="1" vertex="1">
          <mxGeometry x="539.5" y="245" width="59" height="40" as="geometry"/>
        </mxCell>
        <mxCell id="76PlY3qgO6dOQQKfIqFN-34" value="uid getter" style="rounded=0;whiteSpace=wrap;html=1;fillColor=#fad7ac;strokeColor=#b46504;shadow=0;comic=1;opacity=50;" parent="1" vertex="1">
          <mxGeometry x="611.5" y="245" width="82" height="40" as="geometry"/>
        </mxCell>
        <mxCell id="76PlY3qgO6dOQQKfIqFN-35" value="login" style="rounded=0;whiteSpace=wrap;html=1;fillColor=#fad7ac;strokeColor=#b46504;shadow=0;comic=1;opacity=50;" parent="1" vertex="1">
          <mxGeometry x="471.5" y="245" width="57" height="40" as="geometry"/>
        </mxCell>
        <mxCell id="76PlY3qgO6dOQQKfIqFN-40" value="&lt;span style=&quot;font-size: 20px&quot;&gt;R&lt;/span&gt;" style="ellipse;html=1;aspect=fixed;fillColor=#dae8fc;strokeColor=#6c8ebf;opacity=80;shadow=0;labelBorderColor=none;labelBackgroundColor=none;whiteSpace=wrap;" parent="1" vertex="1">
          <mxGeometry x="358.5" y="227" width="56" height="56" as="geometry"/>
        </mxCell>
        <mxCell id="76PlY3qgO6dOQQKfIqFN-41" style="edgeStyle=orthogonalEdgeStyle;curved=1;rounded=0;comic=1;orthogonalLoop=1;jettySize=auto;html=1;" parent="1" source="76PlY3qgO6dOQQKfIqFN-32" target="76PlY3qgO6dOQQKfIqFN-37" edge="1">
          <mxGeometry relative="1" as="geometry">
            <Array as="points">
              <mxPoint x="378.5" y="258"/>
              <mxPoint x="378.5" y="168"/>
            </Array>
          </mxGeometry>
        </mxCell>
        <mxCell id="76PlY3qgO6dOQQKfIqFN-42" style="edgeStyle=orthogonalEdgeStyle;curved=1;rounded=0;comic=1;orthogonalLoop=1;jettySize=auto;html=1;" parent="1" source="76PlY3qgO6dOQQKfIqFN-32" target="76PlY3qgO6dOQQKfIqFN-38" edge="1">
          <mxGeometry relative="1" as="geometry">
            <Array as="points">
              <mxPoint x="358.5" y="258"/>
              <mxPoint x="358.5" y="223"/>
            </Array>
          </mxGeometry>
        </mxCell>
        <mxCell id="76PlY3qgO6dOQQKfIqFN-43" style="edgeStyle=orthogonalEdgeStyle;curved=1;rounded=0;comic=1;orthogonalLoop=1;jettySize=auto;html=1;" parent="1" source="76PlY3qgO6dOQQKfIqFN-32" target="76PlY3qgO6dOQQKfIqFN-39" edge="1">
          <mxGeometry relative="1" as="geometry"/>
        </mxCell>
        <mxCell id="76PlY3qgO6dOQQKfIqFN-44" value="Application manager" style="rounded=1;whiteSpace=wrap;html=1;verticalAlign=top;align=left;fillColor=#dae8fc;strokeColor=#6c8ebf;shadow=0;fontStyle=1" parent="1" vertex="1">
          <mxGeometry x="438" y="131" width="180" height="80" as="geometry"/>
        </mxCell>
        <mxCell id="76PlY3qgO6dOQQKfIqFN-45" value="scope manager" style="rounded=1;whiteSpace=wrap;html=1;fillColor=#cce5ff;strokeColor=#36393d;shadow=0;comic=1;" parent="1" vertex="1">
          <mxGeometry x="445" y="161" width="80" height="40" as="geometry"/>
        </mxCell>
        <mxCell id="76PlY3qgO6dOQQKfIqFN-72" style="edgeStyle=orthogonalEdgeStyle;curved=1;rounded=0;comic=1;orthogonalLoop=1;jettySize=auto;html=1;exitX=1;exitY=0.75;exitDx=0;exitDy=0;entryX=0.25;entryY=1;entryDx=0;entryDy=0;startArrow=classic;startFill=1;endArrow=none;endFill=0;" parent="1" source="76PlY3qgO6dOQQKfIqFN-47" target="76PlY3qgO6dOQQKfIqFN-9" edge="1">
          <mxGeometry relative="1" as="geometry"/>
        </mxCell>
        <mxCell id="76PlY3qgO6dOQQKfIqFN-73" style="edgeStyle=orthogonalEdgeStyle;curved=1;rounded=0;comic=1;orthogonalLoop=1;jettySize=auto;html=1;exitX=0;exitY=0.25;exitDx=0;exitDy=0;entryX=0.5;entryY=1;entryDx=0;entryDy=0;startArrow=classic;startFill=1;endArrow=none;endFill=0;" parent="1" source="76PlY3qgO6dOQQKfIqFN-47" target="76PlY3qgO6dOQQKfIqFN-29" edge="1">
          <mxGeometry relative="1" as="geometry"/>
        </mxCell>
        <mxCell id="76PlY3qgO6dOQQKfIqFN-74" style="edgeStyle=orthogonalEdgeStyle;curved=1;rounded=0;comic=1;orthogonalLoop=1;jettySize=auto;html=1;exitX=0.25;exitY=1;exitDx=0;exitDy=0;entryX=0.5;entryY=0;entryDx=0;entryDy=0;startArrow=none;startFill=0;endArrow=classic;endFill=1;" parent="1" source="76PlY3qgO6dOQQKfIqFN-47" target="76PlY3qgO6dOQQKfIqFN-6" edge="1">
          <mxGeometry relative="1" as="geometry"/>
        </mxCell>
        <mxCell id="76PlY3qgO6dOQQKfIqFN-75" style="edgeStyle=orthogonalEdgeStyle;curved=1;rounded=0;comic=1;orthogonalLoop=1;jettySize=auto;html=1;exitX=0.5;exitY=1;exitDx=0;exitDy=0;startArrow=none;startFill=0;endArrow=classic;endFill=1;" parent="1" source="76PlY3qgO6dOQQKfIqFN-47" target="76PlY3qgO6dOQQKfIqFN-7" edge="1">
          <mxGeometry relative="1" as="geometry"/>
        </mxCell>
        <mxCell id="76PlY3qgO6dOQQKfIqFN-47" value="token manager" style="rounded=1;whiteSpace=wrap;html=1;fillColor=#b0e3e6;strokeColor=#0e8088;shadow=0;comic=1;align=left;verticalAlign=top;fontStyle=1" parent="1" vertex="1">
          <mxGeometry x="627" y="131" width="112" height="79" as="geometry"/>
        </mxCell>
        <mxCell id="76PlY3qgO6dOQQKfIqFN-49" value="&lt;b&gt;static&lt;/b&gt;" style="rounded=1;whiteSpace=wrap;html=1;comic=1;verticalAlign=top;align=left;fillColor=#76608a;strokeColor=#432D57;fontColor=#ffffff;opacity=40;" parent="1" vertex="1">
          <mxGeometry x="748.5" y="220" width="100" height="80" as="geometry"/>
        </mxCell>
        <mxCell id="76PlY3qgO6dOQQKfIqFN-54" value="&lt;b&gt;ui-pages&lt;/b&gt;" style="rounded=1;whiteSpace=wrap;html=1;comic=1;verticalAlign=middle;align=center;fillColor=#76608a;strokeColor=#432D57;fontColor=#ffffff;opacity=30;" parent="1" vertex="1">
          <mxGeometry x="754.5" y="243" width="90" height="50" as="geometry"/>
        </mxCell>
        <mxCell id="76PlY3qgO6dOQQKfIqFN-55" value="uaa-fronted-proxy" style="rounded=0;whiteSpace=wrap;html=1;verticalAlign=top;comic=1;fillColor=#eeeeee;strokeColor=#36393d;align=left;fontSize=14;fontStyle=1" parent="1" vertex="1">
          <mxGeometry x="1060" y="55" width="437" height="250" as="geometry"/>
        </mxCell>
        <mxCell id="76PlY3qgO6dOQQKfIqFN-56" value="oauth2 client" style="rounded=1;whiteSpace=wrap;html=1;comic=1;fillColor=#b1ddf0;strokeColor=#10739e;" parent="1" vertex="1">
          <mxGeometry x="1237" y="92" width="110" height="34" as="geometry"/>
        </mxCell>
        <mxCell id="76PlY3qgO6dOQQKfIqFN-58" value="proxy" style="rounded=1;whiteSpace=wrap;html=1;comic=1;fillColor=#e1d5e7;strokeColor=#9673a6;align=left;verticalAlign=top;fontStyle=1" parent="1" vertex="1">
          <mxGeometry x="1377" y="85" width="108" height="200" as="geometry"/>
        </mxCell>
        <mxCell id="76PlY3qgO6dOQQKfIqFN-102" value="存取用户信息" style="edgeStyle=orthogonalEdgeStyle;curved=1;rounded=0;comic=1;orthogonalLoop=1;jettySize=auto;html=1;exitX=0.25;exitY=1;exitDx=0;exitDy=0;startArrow=none;startFill=0;endArrow=classic;endFill=1;" parent="1" source="76PlY3qgO6dOQQKfIqFN-59" target="76PlY3qgO6dOQQKfIqFN-98" edge="1">
          <mxGeometry x="-0.2857" y="-15" relative="1" as="geometry">
            <mxPoint as="offset"/>
          </mxGeometry>
        </mxCell>
        <mxCell id="76PlY3qgO6dOQQKfIqFN-103" value="存取" style="edgeStyle=orthogonalEdgeStyle;curved=1;rounded=0;comic=1;orthogonalLoop=1;jettySize=auto;html=1;exitX=0.75;exitY=1;exitDx=0;exitDy=0;entryX=0.75;entryY=0;entryDx=0;entryDy=0;startArrow=none;startFill=0;endArrow=classic;endFill=1;" parent="1" source="76PlY3qgO6dOQQKfIqFN-59" target="76PlY3qgO6dOQQKfIqFN-97" edge="1">
          <mxGeometry relative="1" as="geometry"/>
        </mxCell>
        <mxCell id="76PlY3qgO6dOQQKfIqFN-59" value="user manager" style="rounded=1;whiteSpace=wrap;html=1;comic=1;fillColor=#d5e8d4;strokeColor=#82b366;align=center;verticalAlign=middle;fontStyle=1" parent="1" vertex="1">
          <mxGeometry x="1237" y="135" width="110" height="50" as="geometry"/>
        </mxCell>
        <mxCell id="76PlY3qgO6dOQQKfIqFN-61" value="third-apps" style="rounded=1;whiteSpace=wrap;html=1;opacity=80;align=center;fillColor=#d0cee2;strokeColor=#56517e;shadow=0;comic=1;fontColor=#000000;verticalAlign=top;fontSize=14;fontStyle=1" parent="1" vertex="1">
          <mxGeometry x="1577" y="79" width="160" height="184" as="geometry"/>
        </mxCell>
        <mxCell id="76PlY3qgO6dOQQKfIqFN-62" value="gitlab" style="rounded=1;whiteSpace=wrap;html=1;fillColor=#d0cee2;strokeColor=#56517e;shadow=0;comic=1;fontStyle=0" parent="1" vertex="1">
          <mxGeometry x="1645" y="124" width="70" height="30" as="geometry"/>
        </mxCell>
        <mxCell id="76PlY3qgO6dOQQKfIqFN-63" value="rancher" style="rounded=1;whiteSpace=wrap;html=1;fillColor=#d0cee2;strokeColor=#56517e;shadow=0;comic=1;fontStyle=0" parent="1" vertex="1">
          <mxGeometry x="1645" y="170" width="70" height="30" as="geometry"/>
        </mxCell>
        <mxCell id="76PlY3qgO6dOQQKfIqFN-64" value="..." style="rounded=1;whiteSpace=wrap;html=1;fillColor=#d0cee2;strokeColor=#56517e;shadow=0;comic=1;fontStyle=0" parent="1" vertex="1">
          <mxGeometry x="1647" y="216" width="70" height="30" as="geometry"/>
        </mxCell>
        <mxCell id="76PlY3qgO6dOQQKfIqFN-78" value="db1" style="rounded=1;whiteSpace=wrap;html=1;comic=1;verticalAlign=top;align=left;fillColor=#dae8fc;strokeColor=#6c8ebf;opacity=40;" parent="1" vertex="1">
          <mxGeometry x="754.5" y="460" width="255" height="80" as="geometry"/>
        </mxCell>
        <mxCell id="76PlY3qgO6dOQQKfIqFN-79" value="db2" style="rounded=1;whiteSpace=wrap;html=1;comic=1;verticalAlign=top;align=left;fillColor=#ffe6cc;strokeColor=#d79b00;opacity=40;" parent="1" vertex="1">
          <mxGeometry x="1055.5" y="440" width="406" height="100" as="geometry"/>
        </mxCell>
        <mxCell id="76PlY3qgO6dOQQKfIqFN-77" value="&lt;b&gt;accessToken&lt;/b&gt;" style="rounded=1;whiteSpace=wrap;html=1;comic=1;verticalAlign=middle;align=center;fillColor=#ffe6cc;strokeColor=#d79b00;" parent="1" vertex="1">
          <mxGeometry x="1080.5" y="450" width="105" height="40" as="geometry"/>
        </mxCell>
        <mxCell id="76PlY3qgO6dOQQKfIqFN-6" value="&lt;b&gt;sessionToken&lt;/b&gt;" style="rounded=1;whiteSpace=wrap;html=1;comic=1;verticalAlign=middle;align=center;fillColor=#dae8fc;strokeColor=#6c8ebf;" parent="1" vertex="1">
          <mxGeometry x="761.5" y="490" width="110" height="40" as="geometry"/>
        </mxCell>
        <mxCell id="76PlY3qgO6dOQQKfIqFN-7" value="&lt;b&gt;accessToken&lt;/b&gt;" style="rounded=1;whiteSpace=wrap;html=1;comic=1;verticalAlign=middle;align=center;fillColor=#dae8fc;strokeColor=#6c8ebf;" parent="1" vertex="1">
          <mxGeometry x="891.5" y="490" width="110" height="40" as="geometry"/>
        </mxCell>
        <mxCell id="76PlY3qgO6dOQQKfIqFN-80" value="&lt;b&gt;sessionToken&lt;/b&gt;" style="rounded=1;whiteSpace=wrap;html=1;comic=1;verticalAlign=middle;align=center;fillColor=#ffe6cc;strokeColor=#d79b00;" parent="1" vertex="1">
          <mxGeometry x="1254.5" y="450" width="110" height="40" as="geometry"/>
        </mxCell>
        <mxCell id="76PlY3qgO6dOQQKfIqFN-84" value="ui-proxy" style="rounded=1;whiteSpace=wrap;html=1;comic=1;fillColor=#e1d5e7;strokeColor=#9673a6;align=center;verticalAlign=middle;fontStyle=1" parent="1" vertex="1">
          <mxGeometry x="1382" y="121.5" width="98" height="40" as="geometry"/>
        </mxCell>
        <mxCell id="76PlY3qgO6dOQQKfIqFN-85" value="api-proxy" style="rounded=1;whiteSpace=wrap;html=1;comic=1;fillColor=#e1d5e7;strokeColor=#9673a6;align=center;verticalAlign=middle;fontStyle=1" parent="1" vertex="1">
          <mxGeometry x="1382" y="206" width="98" height="40" as="geometry"/>
        </mxCell>
        <mxCell id="76PlY3qgO6dOQQKfIqFN-60" style="edgeStyle=orthogonalEdgeStyle;curved=1;rounded=0;orthogonalLoop=1;jettySize=auto;html=1;entryX=1;entryY=0.25;entryDx=0;entryDy=0;shadow=0;startArrow=classic;startFill=1;endArrow=none;endFill=0;fontSize=14;fontColor=#000000;" parent="1" source="76PlY3qgO6dOQQKfIqFN-61" target="76PlY3qgO6dOQQKfIqFN-59" edge="1">
          <mxGeometry relative="1" as="geometry"/>
        </mxCell>
        <mxCell id="76PlY3qgO6dOQQKfIqFN-91" style="edgeStyle=orthogonalEdgeStyle;curved=1;rounded=0;comic=1;orthogonalLoop=1;jettySize=auto;html=1;exitX=0.5;exitY=1;exitDx=0;exitDy=0;startArrow=none;startFill=0;endArrow=classic;endFill=1;" parent="1" source="76PlY3qgO6dOQQKfIqFN-86" target="76PlY3qgO6dOQQKfIqFN-77" edge="1">
          <mxGeometry relative="1" as="geometry"/>
        </mxCell>
        <mxCell id="76PlY3qgO6dOQQKfIqFN-92" style="edgeStyle=orthogonalEdgeStyle;curved=1;rounded=0;comic=1;orthogonalLoop=1;jettySize=auto;html=1;exitX=0.75;exitY=1;exitDx=0;exitDy=0;startArrow=none;startFill=0;endArrow=classic;endFill=1;" parent="1" source="76PlY3qgO6dOQQKfIqFN-86" target="76PlY3qgO6dOQQKfIqFN-80" edge="1">
          <mxGeometry relative="1" as="geometry"/>
        </mxCell>
        <mxCell id="76PlY3qgO6dOQQKfIqFN-93" value="session注入" style="edgeStyle=orthogonalEdgeStyle;curved=1;rounded=0;comic=1;orthogonalLoop=1;jettySize=auto;html=1;exitX=1;exitY=0.25;exitDx=0;exitDy=0;entryX=0;entryY=0.75;entryDx=0;entryDy=0;startArrow=none;startFill=0;endArrow=classic;endFill=1;" parent="1" source="76PlY3qgO6dOQQKfIqFN-86" target="76PlY3qgO6dOQQKfIqFN-58" edge="1">
          <mxGeometry relative="1" as="geometry"/>
        </mxCell>
        <mxCell id="76PlY3qgO6dOQQKfIqFN-86" value="token manager&lt;br&gt;&lt;span style=&quot;font-weight: normal&quot;&gt;解析和校验&lt;/span&gt;" style="rounded=1;whiteSpace=wrap;html=1;comic=1;fillColor=#b0e3e6;strokeColor=#0e8088;align=center;verticalAlign=top;fontStyle=1;" parent="1" vertex="1">
          <mxGeometry x="1075" y="202" width="122" height="91" as="geometry"/>
        </mxCell>
        <mxCell id="76PlY3qgO6dOQQKfIqFN-89" value="&lt;b&gt;middleware&lt;/b&gt;" style="rounded=1;whiteSpace=wrap;html=1;comic=1;verticalAlign=top;align=left;fillColor=#f8cecc;strokeColor=#b85450;opacity=50;" parent="1" vertex="1">
          <mxGeometry x="1070" y="89" width="151" height="94" as="geometry"/>
        </mxCell>
        <mxCell id="76PlY3qgO6dOQQKfIqFN-94" style="edgeStyle=orthogonalEdgeStyle;curved=1;rounded=0;comic=1;orthogonalLoop=1;jettySize=auto;html=1;exitX=0.5;exitY=1;exitDx=0;exitDy=0;entryX=0.5;entryY=0;entryDx=0;entryDy=0;startArrow=none;startFill=0;endArrow=classic;endFill=1;" parent="1" source="76PlY3qgO6dOQQKfIqFN-90" target="76PlY3qgO6dOQQKfIqFN-86" edge="1">
          <mxGeometry relative="1" as="geometry"/>
        </mxCell>
        <mxCell id="76PlY3qgO6dOQQKfIqFN-90" value="&lt;b&gt;auth sessionToken&lt;/b&gt;" style="rounded=1;whiteSpace=wrap;html=1;comic=1;verticalAlign=middle;align=center;fillColor=#f8cecc;strokeColor=#b85450;opacity=50;" parent="1" vertex="1">
          <mxGeometry x="1081" y="146" width="130" height="31" as="geometry"/>
        </mxCell>
        <mxCell id="76PlY3qgO6dOQQKfIqFN-104" value="通过sessionToken&lt;br&gt;获取数据" style="edgeStyle=orthogonalEdgeStyle;curved=1;rounded=0;comic=1;orthogonalLoop=1;jettySize=auto;html=1;exitX=1;exitY=0.5;exitDx=0;exitDy=0;entryX=0;entryY=0.25;entryDx=0;entryDy=0;startArrow=none;startFill=0;endArrow=classic;endFill=1;strokeWidth=2;fillColor=#008a00;strokeColor=#005700;" parent="1" source="76PlY3qgO6dOQQKfIqFN-96" target="76PlY3qgO6dOQQKfIqFN-89" edge="1">
          <mxGeometry relative="1" as="geometry"/>
        </mxCell>
        <mxCell id="76PlY3qgO6dOQQKfIqFN-96" value="proxy" style="rounded=1;whiteSpace=wrap;html=1;comic=1;fillColor=#b0e3e6;strokeColor=#0e8088;align=center;verticalAlign=middle;fontStyle=1;" parent="1" vertex="1">
          <mxGeometry x="854.5" y="221" width="84" height="79" as="geometry"/>
        </mxCell>
        <mxCell id="76PlY3qgO6dOQQKfIqFN-97" value="&lt;b&gt;thirdAppToken&lt;/b&gt;" style="rounded=1;whiteSpace=wrap;html=1;comic=1;verticalAlign=middle;align=center;fillColor=#ffe6cc;strokeColor=#d79b00;" parent="1" vertex="1">
          <mxGeometry x="1309.5" y="500" width="110" height="40" as="geometry"/>
        </mxCell>
        <mxCell id="76PlY3qgO6dOQQKfIqFN-98" value="&lt;b&gt;userStore&lt;/b&gt;" style="rounded=1;whiteSpace=wrap;html=1;comic=1;verticalAlign=middle;align=center;fillColor=#ffe6cc;strokeColor=#d79b00;" parent="1" vertex="1">
          <mxGeometry x="1149.5" y="500" width="105" height="40" as="geometry"/>
        </mxCell>
        <mxCell id="76PlY3qgO6dOQQKfIqFN-106" style="rounded=0;comic=1;orthogonalLoop=1;jettySize=auto;html=1;exitX=0;exitY=0;exitDx=44;exitDy=0;exitPerimeter=0;startArrow=diamondThin;startFill=1;endArrow=diamondThin;endFill=1;entryX=0.25;entryY=1;entryDx=0;entryDy=0;fillColor=#008a00;strokeColor=#005700;strokeWidth=2;" parent="1" source="76PlY3qgO6dOQQKfIqFN-105" target="76PlY3qgO6dOQQKfIqFN-86" edge="1">
          <mxGeometry relative="1" as="geometry">
            <mxPoint x="1011.5" y="290" as="targetPoint"/>
          </mxGeometry>
        </mxCell>
        <mxCell id="76PlY3qgO6dOQQKfIqFN-105" value="1. 本地redis校验sessionToken&lt;br&gt;2. 从raging-hub校验sessionToke并获取对应员工号（用户id）" style="shape=note;whiteSpace=wrap;html=1;backgroundOutline=1;darkOpacity=0.05;rounded=0;comic=1;fillColor=#dae8fc;opacity=40;align=left;strokeColor=#6c8ebf;" parent="1" vertex="1">
          <mxGeometry x="916" y="333" width="201" height="60" as="geometry"/>
        </mxCell>
        <mxCell id="76PlY3qgO6dOQQKfIqFN-110" value="uaa-proxy&lt;br&gt;get accessToken" style="ellipse;whiteSpace=wrap;html=1;rounded=0;comic=1;opacity=40;align=center;fillColor=#e1d5e7;strokeColor=#9673a6;" parent="1" vertex="1">
          <mxGeometry x="40" y="1195" width="110" height="40" as="geometry"/>
        </mxCell>
        <mxCell id="76PlY3qgO6dOQQKfIqFN-111" value="uaa-proxy&lt;br&gt;get code" style="ellipse;whiteSpace=wrap;html=1;rounded=0;comic=1;opacity=40;align=center;fillColor=#ffe6cc;strokeColor=#d79b00;" parent="1" vertex="1">
          <mxGeometry x="40" y="920" width="110" height="40" as="geometry"/>
        </mxCell>
        <mxCell id="76PlY3qgO6dOQQKfIqFN-112" value="raging-ui访问流程" style="ellipse;whiteSpace=wrap;html=1;rounded=0;comic=1;opacity=40;align=center;fillColor=#b0e3e6;strokeColor=#0e8088;" parent="1" vertex="1">
          <mxGeometry x="38" y="720" width="110" height="40" as="geometry"/>
        </mxCell>
        <mxCell id="76PlY3qgO6dOQQKfIqFN-115" value="login page" style="shape=umlLifeline;perimeter=lifelinePerimeter;whiteSpace=wrap;html=1;container=1;collapsible=0;recursiveResize=0;outlineConnect=0;rounded=0;comic=0;align=center;strokeWidth=1;flipH=1;flipV=0;strokeColor=#b46504;labelBorderColor=none;labelBackgroundColor=none;fillColor=#fad7ac;" parent="1" vertex="1">
          <mxGeometry x="451" y="640" width="126" height="720" as="geometry"/>
        </mxCell>
        <mxCell id="3qQfNFwAXlZ41oWte92f-2" value="" style="html=1;points=[];perimeter=orthogonalPerimeter;rounded=0;comic=0;strokeWidth=1;align=center;strokeColor=#000000;labelBorderColor=none;labelBackgroundColor=none;" parent="76PlY3qgO6dOQQKfIqFN-115" vertex="1">
          <mxGeometry x="58" y="180" width="10" height="80" as="geometry"/>
        </mxCell>
        <mxCell id="3qQfNFwAXlZ41oWte92f-36" value="" style="html=1;points=[];perimeter=orthogonalPerimeter;rounded=0;comic=0;strokeWidth=1;align=center;strokeColor=#000000;labelBorderColor=none;labelBackgroundColor=none;" parent="76PlY3qgO6dOQQKfIqFN-115" vertex="1">
          <mxGeometry x="60" y="360" width="10" height="120" as="geometry"/>
        </mxCell>
        <mxCell id="76PlY3qgO6dOQQKfIqFN-117" value="ldap/wx/ad" style="shape=umlLifeline;perimeter=lifelinePerimeter;whiteSpace=wrap;html=1;container=1;collapsible=0;recursiveResize=0;outlineConnect=0;rounded=0;comic=0;align=center;strokeWidth=1;flipH=1;flipV=0;strokeColor=#b46504;labelBorderColor=none;labelBackgroundColor=none;fillColor=#fad7ac;" parent="1" vertex="1">
          <mxGeometry x="845" y="640" width="125" height="720" as="geometry"/>
        </mxCell>
        <mxCell id="3qQfNFwAXlZ41oWte92f-13" value="" style="html=1;points=[];perimeter=orthogonalPerimeter;rounded=0;comic=0;strokeWidth=1;align=center;strokeColor=#000000;labelBorderColor=none;labelBackgroundColor=none;" parent="76PlY3qgO6dOQQKfIqFN-117" vertex="1">
          <mxGeometry x="57" y="180" width="10" height="30" as="geometry"/>
        </mxCell>
        <mxCell id="3qQfNFwAXlZ41oWte92f-38" value="" style="html=1;points=[];perimeter=orthogonalPerimeter;rounded=0;comic=0;strokeWidth=1;align=center;strokeColor=#000000;labelBorderColor=none;labelBackgroundColor=none;" parent="76PlY3qgO6dOQQKfIqFN-117" vertex="1">
          <mxGeometry x="57" y="360" width="10" height="30" as="geometry"/>
        </mxCell>
        <mxCell id="76PlY3qgO6dOQQKfIqFN-118" value="/oauth/authorize" style="shape=umlLifeline;perimeter=lifelinePerimeter;whiteSpace=wrap;html=1;container=1;collapsible=0;recursiveResize=0;outlineConnect=0;rounded=0;comic=0;align=center;strokeWidth=1;flipH=1;flipV=0;strokeColor=#10739e;labelBorderColor=none;labelBackgroundColor=none;fillColor=#b1ddf0;" parent="1" vertex="1">
          <mxGeometry x="1011" y="640" width="125" height="720" as="geometry"/>
        </mxCell>
        <mxCell id="3qQfNFwAXlZ41oWte92f-45" value="" style="html=1;points=[];perimeter=orthogonalPerimeter;rounded=0;comic=0;strokeWidth=1;align=center;strokeColor=#000000;labelBorderColor=none;labelBackgroundColor=none;" parent="76PlY3qgO6dOQQKfIqFN-118" vertex="1">
          <mxGeometry x="57" y="430" width="10" height="40" as="geometry"/>
        </mxCell>
        <mxCell id="76PlY3qgO6dOQQKfIqFN-120" value="/oauth/token" style="shape=umlLifeline;perimeter=lifelinePerimeter;whiteSpace=wrap;html=1;container=1;collapsible=0;recursiveResize=0;outlineConnect=0;rounded=0;comic=0;align=center;strokeWidth=1;flipH=1;flipV=0;strokeColor=#10739e;labelBorderColor=none;labelBackgroundColor=none;fillColor=#b1ddf0;" parent="1" vertex="1">
          <mxGeometry x="1178" y="640" width="125" height="720" as="geometry"/>
        </mxCell>
        <mxCell id="3qQfNFwAXlZ41oWte92f-66" value="" style="html=1;points=[];perimeter=orthogonalPerimeter;rounded=0;comic=0;strokeWidth=1;align=center;strokeColor=#000000;labelBorderColor=none;labelBackgroundColor=none;" parent="76PlY3qgO6dOQQKfIqFN-120" vertex="1">
          <mxGeometry x="60" y="575" width="10" height="116" as="geometry"/>
        </mxCell>
        <mxCell id="76PlY3qgO6dOQQKfIqFN-121" value="validator" style="shape=umlLifeline;perimeter=lifelinePerimeter;whiteSpace=wrap;html=1;container=1;collapsible=0;recursiveResize=0;outlineConnect=0;rounded=0;comic=0;align=center;strokeWidth=1;flipH=1;flipV=0;strokeColor=#10739e;labelBorderColor=none;labelBackgroundColor=none;fillColor=#b1ddf0;" parent="1" vertex="1">
          <mxGeometry x="1344" y="640" width="125" height="720" as="geometry"/>
        </mxCell>
        <mxCell id="3qQfNFwAXlZ41oWte92f-87" value="" style="html=1;points=[];perimeter=orthogonalPerimeter;rounded=0;comic=0;strokeWidth=1;align=center;strokeColor=#000000;labelBorderColor=none;labelBackgroundColor=none;" parent="76PlY3qgO6dOQQKfIqFN-121" vertex="1">
          <mxGeometry x="59.5" y="595" width="10" height="30" as="geometry"/>
        </mxCell>
        <mxCell id="3qQfNFwAXlZ41oWte92f-48" value="" style="html=1;points=[];perimeter=orthogonalPerimeter;rounded=0;comic=0;strokeWidth=1;align=center;strokeColor=#000000;labelBorderColor=none;labelBackgroundColor=none;" parent="76PlY3qgO6dOQQKfIqFN-121" vertex="1">
          <mxGeometry x="57.5" y="436" width="10" height="30" as="geometry"/>
        </mxCell>
        <mxCell id="76PlY3qgO6dOQQKfIqFN-122" value="accessToken-manager" style="shape=umlLifeline;perimeter=lifelinePerimeter;whiteSpace=wrap;html=1;container=1;collapsible=0;recursiveResize=0;outlineConnect=0;rounded=0;comic=0;align=center;strokeWidth=1;flipH=1;flipV=0;strokeColor=#10739e;labelBorderColor=none;labelBackgroundColor=none;fillColor=#b1ddf0;" parent="1" vertex="1">
          <mxGeometry x="1510" y="640" width="125" height="720" as="geometry"/>
        </mxCell>
        <mxCell id="3qQfNFwAXlZ41oWte92f-90" value="" style="html=1;points=[];perimeter=orthogonalPerimeter;rounded=0;comic=0;strokeWidth=1;align=center;strokeColor=#000000;labelBorderColor=none;labelBackgroundColor=none;" parent="76PlY3qgO6dOQQKfIqFN-122" vertex="1">
          <mxGeometry x="57.5" y="650" width="10" height="30" as="geometry"/>
        </mxCell>
        <mxCell id="76PlY3qgO6dOQQKfIqFN-124" value="发送请求" style="endArrow=classic;html=1;strokeWidth=1;comic=0;strokeColor=#000000;labelBorderColor=none;labelBackgroundColor=#ffffff;spacingLeft=2;spacingRight=2;" parent="1" source="76PlY3qgO6dOQQKfIqFN-112" target="76PlY3qgO6dOQQKfIqFN-123" edge="1">
          <mxGeometry width="50" height="50" relative="1" as="geometry">
            <mxPoint x="180" y="740" as="sourcePoint"/>
            <mxPoint x="310" y="740" as="targetPoint"/>
          </mxGeometry>
        </mxCell>
        <mxCell id="3qQfNFwAXlZ41oWte92f-1" value="验证sessionToken" style="endArrow=classic;html=1;strokeWidth=1;comic=0;strokeColor=#000000;labelBorderColor=none;labelBackgroundColor=#ffffff;spacingLeft=2;spacingRight=2;" parent="1" target="76PlY3qgO6dOQQKfIqFN-125" edge="1">
          <mxGeometry width="50" height="50" relative="1" as="geometry">
            <mxPoint x="323" y="761" as="sourcePoint"/>
            <mxPoint x="496.5" y="761" as="targetPoint"/>
          </mxGeometry>
        </mxCell>
        <mxCell id="3qQfNFwAXlZ41oWte92f-5" value="携带临时&lt;br&gt;sessionToken（no info）&lt;br&gt;重定向到登录" style="endArrow=classic;html=1;strokeWidth=1;comic=0;strokeColor=#000000;labelBorderColor=none;labelBackgroundColor=#ffffff;spacingLeft=2;spacingRight=2;exitX=1.117;exitY=0.468;exitDx=0;exitDy=0;exitPerimeter=0;" parent="1" target="3qQfNFwAXlZ41oWte92f-2" edge="1">
          <mxGeometry width="50" height="50" relative="1" as="geometry">
            <mxPoint x="324.1700000000001" y="824.8799999999999" as="sourcePoint"/>
            <mxPoint x="506.5" y="781" as="targetPoint"/>
          </mxGeometry>
        </mxCell>
        <mxCell id="3qQfNFwAXlZ41oWte92f-7" value="登录" style="endArrow=classic;html=1;strokeWidth=1;comic=0;strokeColor=#000000;labelBorderColor=none;labelBackgroundColor=#ffffff;spacingLeft=2;spacingRight=2;entryX=0.145;entryY=0.151;entryDx=0;entryDy=0;entryPerimeter=0;" parent="1" source="3qQfNFwAXlZ41oWte92f-2" target="3qQfNFwAXlZ41oWte92f-13" edge="1">
          <mxGeometry width="50" height="50" relative="1" as="geometry">
            <mxPoint x="691.5" y="833" as="sourcePoint"/>
            <mxPoint x="867" y="833" as="targetPoint"/>
            <Array as="points"/>
          </mxGeometry>
        </mxCell>
        <mxCell id="3qQfNFwAXlZ41oWte92f-8" value="返回成功" style="endArrow=classic;html=1;strokeWidth=1;comic=0;strokeColor=#000000;labelBorderColor=none;labelBackgroundColor=#ffffff;spacingLeft=2;spacingRight=2;exitX=0.093;exitY=0.965;exitDx=0;exitDy=0;exitPerimeter=0;" parent="1" source="3qQfNFwAXlZ41oWte92f-13" target="3qQfNFwAXlZ41oWte92f-2" edge="1">
          <mxGeometry width="50" height="50" relative="1" as="geometry">
            <mxPoint x="867" y="858" as="sourcePoint"/>
            <mxPoint x="691.5" y="858" as="targetPoint"/>
          </mxGeometry>
        </mxCell>
        <mxCell id="3qQfNFwAXlZ41oWte92f-9" value="返回sessionToken" style="endArrow=classic;html=1;strokeWidth=1;comic=0;strokeColor=#000000;labelBorderColor=none;labelBackgroundColor=#ffffff;spacingLeft=2;spacingRight=2;" parent="1" source="3qQfNFwAXlZ41oWte92f-2" edge="1">
          <mxGeometry width="50" height="50" relative="1" as="geometry">
            <mxPoint x="630" y="930" as="sourcePoint"/>
            <mxPoint x="324" y="900" as="targetPoint"/>
          </mxGeometry>
        </mxCell>
        <mxCell id="3qQfNFwAXlZ41oWte92f-10" value="返回临时sessionToken" style="endArrow=classic;html=1;strokeWidth=1;comic=0;strokeColor=#000000;labelBorderColor=none;labelBackgroundColor=#ffffff;spacingLeft=2;spacingRight=2;" parent="1" source="76PlY3qgO6dOQQKfIqFN-125" target="76PlY3qgO6dOQQKfIqFN-123" edge="1">
          <mxGeometry width="50" height="50" relative="1" as="geometry">
            <mxPoint x="576.5" y="790" as="sourcePoint"/>
            <mxPoint x="401" y="790" as="targetPoint"/>
            <Array as="points">
              <mxPoint x="470" y="800"/>
            </Array>
          </mxGeometry>
        </mxCell>
        <mxCell id="3qQfNFwAXlZ41oWte92f-15" value="请求sessionToken" style="endArrow=classic;html=1;strokeWidth=1;comic=0;strokeColor=#000000;labelBorderColor=none;labelBackgroundColor=#ffffff;spacingLeft=2;spacingRight=2;entryX=0.05;entryY=0.072;entryDx=0;entryDy=0;entryPerimeter=0;" parent="1" source="3qQfNFwAXlZ41oWte92f-2" target="3qQfNFwAXlZ41oWte92f-6" edge="1">
          <mxGeometry width="50" height="50" relative="1" as="geometry">
            <mxPoint x="702" y="831.5300000000002" as="sourcePoint"/>
            <mxPoint x="1061.9499999999998" y="831.5300000000002" as="targetPoint"/>
            <Array as="points"/>
          </mxGeometry>
        </mxCell>
        <mxCell id="3qQfNFwAXlZ41oWte92f-16" value="生成sessionToken" style="endArrow=classic;html=1;strokeWidth=1;comic=0;strokeColor=#000000;labelBorderColor=none;labelBackgroundColor=#ffffff;spacingLeft=2;spacingRight=2;exitX=0.117;exitY=0.817;exitDx=0;exitDy=0;exitPerimeter=0;" parent="1" source="3qQfNFwAXlZ41oWte92f-6" target="3qQfNFwAXlZ41oWte92f-2" edge="1">
          <mxGeometry width="50" height="50" relative="1" as="geometry">
            <mxPoint x="702" y="863.5" as="sourcePoint"/>
            <mxPoint x="876.5" y="863.5" as="targetPoint"/>
          </mxGeometry>
        </mxCell>
        <mxCell id="3qQfNFwAXlZ41oWte92f-24" value="clientId+scope+..." style="endArrow=classic;html=1;strokeWidth=1;comic=0;strokeColor=#000000;labelBorderColor=none;labelBackgroundColor=#ffffff;spacingLeft=2;spacingRight=2;exitX=1;exitY=0.5;exitDx=0;exitDy=0;" parent="1" source="76PlY3qgO6dOQQKfIqFN-111" target="3qQfNFwAXlZ41oWte92f-22" edge="1">
          <mxGeometry width="50" height="50" relative="1" as="geometry">
            <mxPoint x="127" y="990" as="sourcePoint"/>
            <mxPoint x="292" y="990" as="targetPoint"/>
          </mxGeometry>
        </mxCell>
        <mxCell id="3qQfNFwAXlZ41oWte92f-28" value="返回临时sessionToken" style="endArrow=classic;html=1;strokeWidth=1;comic=0;strokeColor=#000000;labelBorderColor=none;labelBackgroundColor=#ffffff;spacingLeft=2;spacingRight=2;entryX=1.057;entryY=0.2;entryDx=0;entryDy=0;entryPerimeter=0;" parent="1" source="3qQfNFwAXlZ41oWte92f-26" target="3qQfNFwAXlZ41oWte92f-22" edge="1">
          <mxGeometry width="50" height="50" relative="1" as="geometry">
            <mxPoint x="578.5" y="970" as="sourcePoint"/>
            <mxPoint x="325" y="980" as="targetPoint"/>
          </mxGeometry>
        </mxCell>
        <mxCell id="3qQfNFwAXlZ41oWte92f-27" value="验证sessionToken" style="endArrow=classic;html=1;strokeWidth=1;comic=0;strokeColor=#000000;labelBorderColor=none;labelBackgroundColor=#ffffff;spacingLeft=2;spacingRight=2;exitX=1.083;exitY=0.028;exitDx=0;exitDy=0;exitPerimeter=0;" parent="1" source="3qQfNFwAXlZ41oWte92f-22" target="3qQfNFwAXlZ41oWte92f-26" edge="1">
          <mxGeometry width="50" height="50" relative="1" as="geometry">
            <mxPoint x="325" y="941" as="sourcePoint"/>
            <mxPoint x="498.5" y="941" as="targetPoint"/>
          </mxGeometry>
        </mxCell>
        <mxCell id="3qQfNFwAXlZ41oWte92f-39" value="携带临时&lt;br&gt;sessionToken（callback）&lt;br&gt;重定向到登录" style="endArrow=classic;html=1;strokeWidth=1;comic=0;strokeColor=#000000;labelBorderColor=none;labelBackgroundColor=#ffffff;spacingLeft=2;spacingRight=2;entryX=0.067;entryY=0.039;entryDx=0;entryDy=0;entryPerimeter=0;" parent="1" source="3qQfNFwAXlZ41oWte92f-22" target="3qQfNFwAXlZ41oWte92f-36" edge="1">
          <mxGeometry width="50" height="50" relative="1" as="geometry">
            <mxPoint x="324.3800000000001" y="1005.4000000000001" as="sourcePoint"/>
            <mxPoint x="508.5" y="961" as="targetPoint"/>
          </mxGeometry>
        </mxCell>
        <mxCell id="3qQfNFwAXlZ41oWte92f-46" value="重定向到oauth/authorize" style="endArrow=none;html=1;strokeWidth=1;comic=0;strokeColor=#000000;labelBorderColor=none;labelBackgroundColor=#ffffff;spacingLeft=2;spacingRight=2;entryX=1.071;entryY=0.631;entryDx=0;entryDy=0;entryPerimeter=0;endFill=0;startArrow=classic;startFill=1;" parent="1" source="3qQfNFwAXlZ41oWte92f-45" target="3qQfNFwAXlZ41oWte92f-36" edge="1">
          <mxGeometry width="50" height="50" relative="1" as="geometry">
            <mxPoint x="878.6699999999998" y="1071.5099999999998" as="sourcePoint"/>
            <mxPoint x="704" y="1071.5099999999998" as="targetPoint"/>
          </mxGeometry>
        </mxCell>
        <mxCell id="3qQfNFwAXlZ41oWte92f-47" value="校验clientId+Scope+..." style="endArrow=classic;html=1;strokeWidth=1;comic=0;strokeColor=#000000;labelBorderColor=none;labelBackgroundColor=#ffffff;spacingLeft=2;spacingRight=2;entryX=-0.06;entryY=0.073;entryDx=0;entryDy=0;entryPerimeter=0;" parent="1" source="3qQfNFwAXlZ41oWte92f-45" target="3qQfNFwAXlZ41oWte92f-48" edge="1">
          <mxGeometry width="50" height="50" relative="1" as="geometry">
            <mxPoint x="1109.5" y="1078.1899999999998" as="sourcePoint"/>
            <mxPoint x="1600.5" y="1076.16" as="targetPoint"/>
          </mxGeometry>
        </mxCell>
        <mxCell id="3qQfNFwAXlZ41oWte92f-49" value="校验成功" style="endArrow=classic;html=1;strokeWidth=1;comic=0;strokeColor=#000000;labelBorderColor=none;labelBackgroundColor=#ffffff;spacingLeft=2;spacingRight=2;exitX=0.1;exitY=0.887;exitDx=0;exitDy=0;exitPerimeter=0;" parent="1" source="3qQfNFwAXlZ41oWte92f-48" target="3qQfNFwAXlZ41oWte92f-45" edge="1">
          <mxGeometry width="50" height="50" relative="1" as="geometry">
            <mxPoint x="1430" y="1089" as="sourcePoint"/>
            <mxPoint x="1109.5" y="1102.61" as="targetPoint"/>
          </mxGeometry>
        </mxCell>
        <mxCell id="3qQfNFwAXlZ41oWte92f-50" value="生成code并返回" style="endArrow=classic;html=1;strokeWidth=1;comic=0;strokeColor=#000000;labelBorderColor=none;labelBackgroundColor=#ffffff;spacingLeft=2;spacingRight=2;" parent="1" edge="1" source="3qQfNFwAXlZ41oWte92f-45">
          <mxGeometry width="50" height="50" relative="1" as="geometry">
            <mxPoint x="1099.88" y="1108.8500000000001" as="sourcePoint"/>
            <mxPoint x="521" y="1108.8500000000001" as="targetPoint"/>
          </mxGeometry>
        </mxCell>
        <mxCell id="3qQfNFwAXlZ41oWte92f-42" value="返回code" style="endArrow=classic;html=1;strokeWidth=1;comic=0;strokeColor=#000000;labelBorderColor=none;labelBackgroundColor=#ffffff;spacingLeft=2;spacingRight=2;entryX=0.943;entryY=0.931;entryDx=0;entryDy=0;entryPerimeter=0;" parent="1" source="3qQfNFwAXlZ41oWte92f-36" target="3qQfNFwAXlZ41oWte92f-22" edge="1">
          <mxGeometry width="50" height="50" relative="1" as="geometry">
            <mxPoint x="632" y="1110" as="sourcePoint"/>
            <mxPoint x="325.33000000000015" y="1121.6000000000001" as="targetPoint"/>
          </mxGeometry>
        </mxCell>
        <mxCell id="3qQfNFwAXlZ41oWte92f-86" value="请求token clientId+scope+code&lt;br&gt;+secret" style="endArrow=classic;html=1;strokeWidth=1;comic=0;strokeColor=#000000;labelBorderColor=none;labelBackgroundColor=#ffffff;spacingLeft=2;spacingRight=2;exitX=1;exitY=0.5;exitDx=0;exitDy=0;" parent="1" source="76PlY3qgO6dOQQKfIqFN-110" target="3qQfNFwAXlZ41oWte92f-66" edge="1">
          <mxGeometry width="50" height="50" relative="1" as="geometry">
            <mxPoint x="326.0699999999997" y="1214" as="sourcePoint"/>
            <mxPoint x="511" y="1223.4" as="targetPoint"/>
          </mxGeometry>
        </mxCell>
        <mxCell id="3qQfNFwAXlZ41oWte92f-88" value="校验clientId+Scope+..." style="endArrow=classic;html=1;strokeWidth=1;comic=0;strokeColor=#000000;labelBorderColor=none;labelBackgroundColor=#ffffff;spacingLeft=2;spacingRight=2;entryX=0.067;entryY=0.133;entryDx=0;entryDy=0;entryPerimeter=0;" parent="1" source="3qQfNFwAXlZ41oWte92f-66" target="3qQfNFwAXlZ41oWte92f-87" edge="1">
          <mxGeometry width="50" height="50" relative="1" as="geometry">
            <mxPoint x="1430" y="987.19" as="sourcePoint"/>
            <mxPoint x="1603.4" y="987.19" as="targetPoint"/>
          </mxGeometry>
        </mxCell>
        <mxCell id="3qQfNFwAXlZ41oWte92f-89" value="校验成功" style="endArrow=classic;html=1;strokeWidth=1;comic=0;strokeColor=#000000;labelBorderColor=none;labelBackgroundColor=#ffffff;spacingLeft=2;spacingRight=2;entryX=1.107;entryY=0.41;entryDx=0;entryDy=0;entryPerimeter=0;" parent="1" source="3qQfNFwAXlZ41oWte92f-87" edge="1" target="3qQfNFwAXlZ41oWte92f-66">
          <mxGeometry width="50" height="50" relative="1" as="geometry">
            <mxPoint x="1605" y="1011.6099999999997" as="sourcePoint"/>
            <mxPoint x="1787" y="1266" as="targetPoint"/>
          </mxGeometry>
        </mxCell>
        <mxCell id="3qQfNFwAXlZ41oWte92f-91" value="请求accessToken" style="endArrow=classic;html=1;strokeWidth=1;comic=0;strokeColor=#000000;labelBorderColor=none;labelBackgroundColor=#ffffff;spacingLeft=2;spacingRight=2;" parent="1" source="3qQfNFwAXlZ41oWte92f-66" target="3qQfNFwAXlZ41oWte92f-90" edge="1">
          <mxGeometry width="50" height="50" relative="1" as="geometry">
            <mxPoint x="1798" y="1248.99" as="sourcePoint"/>
            <mxPoint x="1973.17" y="1248.99" as="targetPoint"/>
          </mxGeometry>
        </mxCell>
        <mxCell id="3qQfNFwAXlZ41oWte92f-92" value="返回accessToken" style="endArrow=classic;html=1;strokeWidth=1;comic=0;strokeColor=#000000;labelBorderColor=none;labelBackgroundColor=#ffffff;spacingLeft=2;spacingRight=2;entryX=1.107;entryY=0.844;entryDx=0;entryDy=0;entryPerimeter=0;" parent="1" source="3qQfNFwAXlZ41oWte92f-90" target="3qQfNFwAXlZ41oWte92f-66" edge="1">
          <mxGeometry width="50" height="50" relative="1" as="geometry">
            <mxPoint x="1972.5" y="1275" as="sourcePoint"/>
            <mxPoint x="1790" y="1311" as="targetPoint"/>
          </mxGeometry>
        </mxCell>
        <mxCell id="3qQfNFwAXlZ41oWte92f-95" value="raging-hub代理获取rancher信息" style="ellipse;whiteSpace=wrap;html=1;rounded=0;comic=1;opacity=40;align=center;fillColor=#e1d5e7;strokeColor=#9673a6;" parent="1" vertex="1">
          <mxGeometry x="38" y="1540" width="110" height="40" as="geometry"/>
        </mxCell>
        <mxCell id="3qQfNFwAXlZ41oWte92f-96" value="&lt;span&gt;auth middleware&lt;/span&gt;" style="shape=umlLifeline;perimeter=lifelinePerimeter;whiteSpace=wrap;html=1;container=1;collapsible=0;recursiveResize=0;outlineConnect=0;strokeColor=#b46504;fontStyle=0;fillColor=#fad7ac;" parent="1" vertex="1">
          <mxGeometry x="261.5" y="1480" width="112" height="700" as="geometry"/>
        </mxCell>
        <mxCell id="3qQfNFwAXlZ41oWte92f-115" value="" style="html=1;points=[];perimeter=orthogonalPerimeter;strokeColor=#000000;align=center;" parent="3qQfNFwAXlZ41oWte92f-96" vertex="1">
          <mxGeometry x="51" y="80" width="10" height="230" as="geometry"/>
        </mxCell>
        <mxCell id="3qQfNFwAXlZ41oWte92f-138" value="" style="html=1;points=[];perimeter=orthogonalPerimeter;strokeColor=#000000;align=center;" parent="3qQfNFwAXlZ41oWte92f-96" vertex="1">
          <mxGeometry x="49" y="366" width="10" height="250" as="geometry"/>
        </mxCell>
        <mxCell id="3qQfNFwAXlZ41oWte92f-98" value="sessionToken Mgr" style="rounded=1;whiteSpace=wrap;html=1;fillColor=#b0e3e6;strokeColor=#0e8088;shadow=0;comic=1;align=left;verticalAlign=top;fontStyle=0" parent="1" vertex="1">
          <mxGeometry x="630" y="156" width="106" height="24" as="geometry"/>
        </mxCell>
        <mxCell id="3qQfNFwAXlZ41oWte92f-100" value="validator" style="rounded=1;whiteSpace=wrap;html=1;fillColor=#cce5ff;strokeColor=#36393d;shadow=0;comic=1;" parent="1" vertex="1">
          <mxGeometry x="528.5" y="161" width="80" height="40" as="geometry"/>
        </mxCell>
        <mxCell id="3qQfNFwAXlZ41oWte92f-101" value="accessToken Mgr" style="rounded=1;whiteSpace=wrap;html=1;fillColor=#b0e3e6;strokeColor=#0e8088;shadow=0;comic=1;align=left;verticalAlign=top;fontStyle=0" parent="1" vertex="1">
          <mxGeometry x="630" y="183" width="105" height="24" as="geometry"/>
        </mxCell>
        <mxCell id="3qQfNFwAXlZ41oWte92f-110" value="sessionToken Mgr" style="rounded=1;whiteSpace=wrap;html=1;fillColor=#b0e3e6;strokeColor=#0e8088;shadow=0;comic=1;align=left;verticalAlign=top;fontStyle=0" parent="1" vertex="1">
          <mxGeometry x="1084" y="238" width="106" height="24" as="geometry"/>
        </mxCell>
        <mxCell id="3qQfNFwAXlZ41oWte92f-111" value="accessToken Mgr" style="rounded=1;whiteSpace=wrap;html=1;fillColor=#b0e3e6;strokeColor=#0e8088;shadow=0;comic=1;align=left;verticalAlign=top;fontStyle=0" parent="1" vertex="1">
          <mxGeometry x="1084" y="265" width="105" height="24" as="geometry"/>
        </mxCell>
        <mxCell id="3qQfNFwAXlZ41oWte92f-112" value="&lt;span&gt;sessionToken Mgr&lt;/span&gt;" style="shape=umlLifeline;perimeter=lifelinePerimeter;whiteSpace=wrap;html=1;container=1;collapsible=0;recursiveResize=0;outlineConnect=0;strokeColor=#b46504;fontStyle=0;fillColor=#fad7ac;" parent="1" vertex="1">
          <mxGeometry x="443" y="1480" width="112" height="700" as="geometry"/>
        </mxCell>
        <mxCell id="3qQfNFwAXlZ41oWte92f-140" value="" style="html=1;points=[];perimeter=orthogonalPerimeter;strokeColor=#000000;align=center;" parent="3qQfNFwAXlZ41oWte92f-112" vertex="1">
          <mxGeometry x="51" y="364" width="10" height="193" as="geometry"/>
        </mxCell>
        <mxCell id="DDRdRkafaV5jgmy42ejv-18" value="" style="html=1;points=[];perimeter=orthogonalPerimeter;strokeColor=#000000;align=center;" vertex="1" parent="3qQfNFwAXlZ41oWte92f-112">
          <mxGeometry x="55" y="486" width="10" height="20" as="geometry"/>
        </mxCell>
        <mxCell id="DDRdRkafaV5jgmy42ejv-19" value="存储" style="edgeStyle=orthogonalEdgeStyle;html=1;align=left;spacingLeft=2;endArrow=block;rounded=0;entryX=1;entryY=0;labelBackgroundColor=#ffffff;strokeColor=#000000;" edge="1" parent="3qQfNFwAXlZ41oWte92f-112" target="DDRdRkafaV5jgmy42ejv-18">
          <mxGeometry relative="1" as="geometry">
            <mxPoint x="59.111111111111086" y="476" as="sourcePoint"/>
            <Array as="points">
              <mxPoint x="59" y="476"/>
              <mxPoint x="85" y="476"/>
              <mxPoint x="85" y="486"/>
            </Array>
          </mxGeometry>
        </mxCell>
        <mxCell id="3qQfNFwAXlZ41oWte92f-118" value="" style="html=1;points=[];perimeter=orthogonalPerimeter;strokeColor=#000000;align=center;" parent="3qQfNFwAXlZ41oWte92f-112" vertex="1">
          <mxGeometry x="51" y="90" width="10" height="130" as="geometry"/>
        </mxCell>
        <mxCell id="3qQfNFwAXlZ41oWte92f-113" value="user manager" style="shape=umlLifeline;perimeter=lifelinePerimeter;whiteSpace=wrap;html=1;container=1;collapsible=0;recursiveResize=0;outlineConnect=0;strokeColor=#b46504;fontStyle=0;fillColor=#fad7ac;" parent="1" vertex="1">
          <mxGeometry x="806" y="1480" width="112" height="700" as="geometry"/>
        </mxCell>
        <mxCell id="3qQfNFwAXlZ41oWte92f-126" value="" style="html=1;points=[];perimeter=orthogonalPerimeter;strokeColor=#000000;align=center;" parent="3qQfNFwAXlZ41oWte92f-113" vertex="1">
          <mxGeometry x="51" y="180" width="10" height="90" as="geometry"/>
        </mxCell>
        <mxCell id="DDRdRkafaV5jgmy42ejv-16" value="" style="html=1;points=[];perimeter=orthogonalPerimeter;strokeColor=#000000;align=center;" vertex="1" parent="3qQfNFwAXlZ41oWte92f-113">
          <mxGeometry x="56" y="230" width="10" height="20" as="geometry"/>
        </mxCell>
        <mxCell id="DDRdRkafaV5jgmy42ejv-17" value="存储" style="edgeStyle=orthogonalEdgeStyle;html=1;align=left;spacingLeft=2;endArrow=block;rounded=0;entryX=1;entryY=0;labelBackgroundColor=#ffffff;strokeColor=#000000;" edge="1" parent="3qQfNFwAXlZ41oWte92f-113" target="DDRdRkafaV5jgmy42ejv-16">
          <mxGeometry relative="1" as="geometry">
            <mxPoint x="60.333333333333485" y="220" as="sourcePoint"/>
            <Array as="points">
              <mxPoint x="60" y="220"/>
              <mxPoint x="86" y="220"/>
              <mxPoint x="86" y="230"/>
            </Array>
          </mxGeometry>
        </mxCell>
        <mxCell id="3qQfNFwAXlZ41oWte92f-153" value="" style="html=1;points=[];perimeter=orthogonalPerimeter;strokeColor=#000000;align=center;" parent="3qQfNFwAXlZ41oWte92f-113" vertex="1">
          <mxGeometry x="51" y="510" width="10" height="90" as="geometry"/>
        </mxCell>
        <mxCell id="3qQfNFwAXlZ41oWte92f-165" value="" style="html=1;points=[];perimeter=orthogonalPerimeter;strokeColor=#000000;align=center;" parent="3qQfNFwAXlZ41oWte92f-113" vertex="1">
          <mxGeometry x="56" y="545" width="10" height="20" as="geometry"/>
        </mxCell>
        <mxCell id="3qQfNFwAXlZ41oWte92f-166" value="存储" style="edgeStyle=orthogonalEdgeStyle;html=1;align=left;spacingLeft=2;endArrow=block;rounded=0;entryX=1;entryY=0;labelBackgroundColor=#ffffff;strokeColor=#000000;" parent="3qQfNFwAXlZ41oWte92f-113" target="3qQfNFwAXlZ41oWte92f-165" edge="1">
          <mxGeometry relative="1" as="geometry">
            <mxPoint x="60" y="535" as="sourcePoint"/>
            <Array as="points">
              <mxPoint x="60" y="535"/>
              <mxPoint x="86" y="535"/>
              <mxPoint x="86" y="545"/>
            </Array>
          </mxGeometry>
        </mxCell>
        <mxCell id="3qQfNFwAXlZ41oWte92f-114" value="proxy" style="shape=umlLifeline;perimeter=lifelinePerimeter;whiteSpace=wrap;html=1;container=1;collapsible=0;recursiveResize=0;outlineConnect=0;strokeColor=#b46504;fontStyle=0;fillColor=#fad7ac;" parent="1" vertex="1">
          <mxGeometry x="988" y="1480" width="112" height="700" as="geometry"/>
        </mxCell>
        <mxCell id="3qQfNFwAXlZ41oWte92f-128" value="" style="html=1;points=[];perimeter=orthogonalPerimeter;strokeColor=#000000;align=center;" parent="3qQfNFwAXlZ41oWte92f-114" vertex="1">
          <mxGeometry x="51" y="260" width="10" height="15" as="geometry"/>
        </mxCell>
        <mxCell id="3qQfNFwAXlZ41oWte92f-154" value="" style="html=1;points=[];perimeter=orthogonalPerimeter;strokeColor=#000000;align=center;" parent="3qQfNFwAXlZ41oWte92f-114" vertex="1">
          <mxGeometry x="51" y="571" width="10" height="23" as="geometry"/>
        </mxCell>
        <mxCell id="3qQfNFwAXlZ41oWte92f-116" value="携带raging-hub&lt;br&gt;sessionToken请求" style="endArrow=classic;html=1;strokeWidth=1;comic=0;strokeColor=#000000;labelBorderColor=none;labelBackgroundColor=#ffffff;spacingLeft=2;spacingRight=2;exitX=1;exitY=0.5;exitDx=0;exitDy=0;" parent="1" source="3qQfNFwAXlZ41oWte92f-95" target="3qQfNFwAXlZ41oWte92f-115" edge="1">
          <mxGeometry width="50" height="50" relative="1" as="geometry">
            <mxPoint x="135.5000000000025" y="1550" as="sourcePoint"/>
            <mxPoint x="303.5" y="1550" as="targetPoint"/>
          </mxGeometry>
        </mxCell>
        <mxCell id="3qQfNFwAXlZ41oWte92f-117" value="请求校验sessionToken" style="endArrow=classic;html=1;strokeWidth=1;comic=0;strokeColor=#000000;labelBorderColor=none;labelBackgroundColor=#ffffff;spacingLeft=2;spacingRight=2;exitX=1.221;exitY=0.073;exitDx=0;exitDy=0;exitPerimeter=0;" parent="1" source="3qQfNFwAXlZ41oWte92f-115" target="3qQfNFwAXlZ41oWte92f-118" edge="1">
          <mxGeometry width="50" height="50" relative="1" as="geometry">
            <mxPoint x="330" y="1579.5" as="sourcePoint"/>
            <mxPoint x="494.5" y="1579.5" as="targetPoint"/>
          </mxGeometry>
        </mxCell>
        <mxCell id="3qQfNFwAXlZ41oWte92f-119" value="通过redis校验" style="endArrow=classic;html=1;strokeWidth=1;comic=0;strokeColor=#000000;labelBorderColor=none;labelBackgroundColor=#ffffff;spacingLeft=2;spacingRight=2;exitX=1.181;exitY=0.148;exitDx=0;exitDy=0;exitPerimeter=0;" parent="1" source="3qQfNFwAXlZ41oWte92f-118" target="3qQfNFwAXlZ41oWte92f-120" edge="1">
          <mxGeometry width="50" height="50" relative="1" as="geometry">
            <mxPoint x="480.6700000000001" y="1590.04" as="sourcePoint"/>
            <mxPoint x="653" y="1590.04" as="targetPoint"/>
          </mxGeometry>
        </mxCell>
        <mxCell id="3qQfNFwAXlZ41oWte92f-121" value="校验失败" style="endArrow=classic;html=1;strokeWidth=1;comic=0;strokeColor=#000000;labelBorderColor=none;labelBackgroundColor=#ffffff;spacingLeft=2;spacingRight=2;entryX=1.217;entryY=0.313;entryDx=0;entryDy=0;entryPerimeter=0;" parent="1" source="3qQfNFwAXlZ41oWte92f-120" edge="1" target="3qQfNFwAXlZ41oWte92f-118">
          <mxGeometry width="50" height="50" relative="1" as="geometry">
            <mxPoint x="518.31" y="1591.8400000000001" as="sourcePoint"/>
            <mxPoint x="540" y="1610" as="targetPoint"/>
          </mxGeometry>
        </mxCell>
        <mxCell id="3qQfNFwAXlZ41oWte92f-123" value="去raging-hub校验" style="endArrow=classic;html=1;strokeWidth=1;comic=0;strokeColor=#000000;labelBorderColor=none;labelBackgroundColor=#ffffff;spacingLeft=2;spacingRight=2;exitX=1.043;exitY=0.404;exitDx=0;exitDy=0;exitPerimeter=0;" parent="1" source="3qQfNFwAXlZ41oWte92f-118" target="3qQfNFwAXlZ41oWte92f-122" edge="1">
          <mxGeometry width="50" height="50" relative="1" as="geometry">
            <mxPoint x="573.81" y="1639.8199999999997" as="sourcePoint"/>
            <mxPoint x="745.9999999999998" y="1639.8199999999997" as="targetPoint"/>
          </mxGeometry>
        </mxCell>
        <mxCell id="3qQfNFwAXlZ41oWte92f-124" value="校验成功,并返回对应用户的员工号" style="endArrow=classic;html=1;strokeWidth=1;comic=0;strokeColor=#000000;labelBorderColor=none;labelBackgroundColor=#ffffff;spacingLeft=2;spacingRight=2;entryX=1.3;entryY=0.588;entryDx=0;entryDy=0;entryPerimeter=0;" parent="1" source="3qQfNFwAXlZ41oWte92f-122" target="3qQfNFwAXlZ41oWte92f-118" edge="1">
          <mxGeometry width="50" height="50" relative="1" as="geometry">
            <mxPoint x="570.74" y="1649.9099999999999" as="sourcePoint"/>
            <mxPoint x="460" y="1670" as="targetPoint"/>
          </mxGeometry>
        </mxCell>
        <mxCell id="3qQfNFwAXlZ41oWte92f-127" value="去user manager获取数据" style="endArrow=classic;html=1;strokeWidth=1;comic=0;strokeColor=#000000;labelBorderColor=none;labelBackgroundColor=#ffffff;spacingLeft=2;spacingRight=2;exitX=0.993;exitY=0.73;exitDx=0;exitDy=0;exitPerimeter=0;" parent="1" source="3qQfNFwAXlZ41oWte92f-118" target="3qQfNFwAXlZ41oWte92f-126" edge="1">
          <mxGeometry width="50" height="50" relative="1" as="geometry">
            <mxPoint x="516.9300000000001" y="1632.52" as="sourcePoint"/>
            <mxPoint x="874.5" y="1632.52" as="targetPoint"/>
          </mxGeometry>
        </mxCell>
        <mxCell id="3qQfNFwAXlZ41oWte92f-129" value="获取app token" style="endArrow=classic;html=1;strokeWidth=1;comic=0;strokeColor=#000000;labelBorderColor=none;labelBackgroundColor=#ffffff;spacingLeft=2;spacingRight=2;entryX=-0.119;entryY=0.095;entryDx=0;entryDy=0;entryPerimeter=0;" parent="1" source="3qQfNFwAXlZ41oWte92f-126" target="3qQfNFwAXlZ41oWte92f-132" edge="1">
          <mxGeometry width="50" height="50" relative="1" as="geometry">
            <mxPoint x="1336.0700000000002" y="1670.8599999999997" as="sourcePoint"/>
            <mxPoint x="1658" y="1670.8599999999997" as="targetPoint"/>
          </mxGeometry>
        </mxCell>
        <mxCell id="3qQfNFwAXlZ41oWte92f-130" value="返回token" style="endArrow=classic;html=1;strokeWidth=1;comic=0;strokeColor=#000000;labelBorderColor=none;labelBackgroundColor=#ffffff;spacingLeft=2;spacingRight=2;exitX=0.036;exitY=0.724;exitDx=0;exitDy=0;exitPerimeter=0;" parent="1" source="3qQfNFwAXlZ41oWte92f-132" target="3qQfNFwAXlZ41oWte92f-126" edge="1">
          <mxGeometry width="50" height="50" relative="1" as="geometry">
            <mxPoint x="1622" y="1740" as="sourcePoint"/>
            <mxPoint x="1703" y="1684.5800000000004" as="targetPoint"/>
          </mxGeometry>
        </mxCell>
        <mxCell id="3qQfNFwAXlZ41oWte92f-131" value="rancher" style="shape=umlLifeline;perimeter=lifelinePerimeter;whiteSpace=wrap;html=1;container=1;collapsible=0;recursiveResize=0;outlineConnect=0;strokeColor=#b46504;fontStyle=0;fillColor=#fad7ac;" parent="1" vertex="1">
          <mxGeometry x="1169" y="1480" width="112" height="700" as="geometry"/>
        </mxCell>
        <mxCell id="3qQfNFwAXlZ41oWte92f-132" value="" style="html=1;points=[];perimeter=orthogonalPerimeter;strokeColor=#000000;align=center;" parent="3qQfNFwAXlZ41oWte92f-131" vertex="1">
          <mxGeometry x="51" y="190" width="10" height="30" as="geometry"/>
        </mxCell>
        <mxCell id="3qQfNFwAXlZ41oWte92f-134" value="" style="html=1;points=[];perimeter=orthogonalPerimeter;strokeColor=#000000;align=center;" parent="3qQfNFwAXlZ41oWte92f-131" vertex="1">
          <mxGeometry x="51" y="270" width="10" height="30" as="geometry"/>
        </mxCell>
        <mxCell id="3qQfNFwAXlZ41oWte92f-157" value="" style="html=1;points=[];perimeter=orthogonalPerimeter;strokeColor=#000000;align=center;" parent="3qQfNFwAXlZ41oWte92f-131" vertex="1">
          <mxGeometry x="51" y="510" width="10" height="20" as="geometry"/>
        </mxCell>
        <mxCell id="3qQfNFwAXlZ41oWte92f-158" value="" style="html=1;points=[];perimeter=orthogonalPerimeter;strokeColor=#000000;align=center;" parent="3qQfNFwAXlZ41oWte92f-131" vertex="1">
          <mxGeometry x="51" y="571" width="10" height="30" as="geometry"/>
        </mxCell>
        <mxCell id="3qQfNFwAXlZ41oWte92f-133" value="转到代理" style="endArrow=classic;html=1;strokeWidth=1;comic=0;strokeColor=#000000;labelBorderColor=none;labelBackgroundColor=#ffffff;spacingLeft=2;spacingRight=2;" parent="1" source="3qQfNFwAXlZ41oWte92f-126" target="3qQfNFwAXlZ41oWte92f-128" edge="1">
          <mxGeometry width="50" height="50" relative="1" as="geometry">
            <mxPoint x="1533.57" y="1682.3200000000002" as="sourcePoint"/>
            <mxPoint x="1855.5" y="1682.3200000000002" as="targetPoint"/>
          </mxGeometry>
        </mxCell>
        <mxCell id="3qQfNFwAXlZ41oWte92f-135" value="代理" style="endArrow=classic;html=1;strokeWidth=1;comic=0;strokeColor=#000000;labelBorderColor=none;labelBackgroundColor=#ffffff;spacingLeft=2;spacingRight=2;entryX=0.093;entryY=0.171;entryDx=0;entryDy=0;entryPerimeter=0;" parent="1" source="3qQfNFwAXlZ41oWte92f-128" target="3qQfNFwAXlZ41oWte92f-134" edge="1">
          <mxGeometry width="50" height="50" relative="1" as="geometry">
            <mxPoint x="1712" y="1715" as="sourcePoint"/>
            <mxPoint x="1703" y="1715" as="targetPoint"/>
          </mxGeometry>
        </mxCell>
        <mxCell id="3qQfNFwAXlZ41oWte92f-136" value="返回数据" style="endArrow=classic;html=1;strokeWidth=1;comic=0;strokeColor=#000000;labelBorderColor=none;labelBackgroundColor=#ffffff;spacingLeft=2;spacingRight=2;exitX=-0.25;exitY=0.891;exitDx=0;exitDy=0;exitPerimeter=0;" parent="1" source="3qQfNFwAXlZ41oWte92f-134" target="3qQfNFwAXlZ41oWte92f-115" edge="1">
          <mxGeometry width="50" height="50" relative="1" as="geometry">
            <mxPoint x="1530" y="1740" as="sourcePoint"/>
            <mxPoint x="1544.4299999999998" y="1725.13" as="targetPoint"/>
          </mxGeometry>
        </mxCell>
        <mxCell id="3qQfNFwAXlZ41oWte92f-137" value="用户直接请求数据" style="ellipse;whiteSpace=wrap;html=1;rounded=0;comic=1;opacity=40;align=center;fillColor=#e1d5e7;strokeColor=#9673a6;" parent="1" vertex="1">
          <mxGeometry x="38" y="1826" width="110" height="40" as="geometry"/>
        </mxCell>
        <mxCell id="3qQfNFwAXlZ41oWte92f-139" value="发送请求" style="endArrow=classic;html=1;strokeWidth=1;comic=0;strokeColor=#000000;labelBorderColor=none;labelBackgroundColor=#ffffff;spacingLeft=2;spacingRight=2;exitX=1;exitY=0.5;exitDx=0;exitDy=0;" parent="1" source="3qQfNFwAXlZ41oWte92f-137" target="3qQfNFwAXlZ41oWte92f-138" edge="1">
          <mxGeometry width="50" height="50" relative="1" as="geometry">
            <mxPoint x="137.5" y="1896" as="sourcePoint"/>
            <mxPoint x="302" y="1896" as="targetPoint"/>
          </mxGeometry>
        </mxCell>
        <mxCell id="3qQfNFwAXlZ41oWte92f-141" value="请求校验sessionToken" style="endArrow=classic;html=1;strokeWidth=1;comic=0;strokeColor=#000000;labelBorderColor=none;labelBackgroundColor=#ffffff;spacingLeft=2;spacingRight=2;entryX=0.183;entryY=0.063;entryDx=0;entryDy=0;entryPerimeter=0;" parent="1" source="3qQfNFwAXlZ41oWte92f-138" target="3qQfNFwAXlZ41oWte92f-140" edge="1">
          <mxGeometry width="50" height="50" relative="1" as="geometry">
            <mxPoint x="516.4299999999998" y="1570.9" as="sourcePoint"/>
            <mxPoint x="1210.5" y="1570.9" as="targetPoint"/>
          </mxGeometry>
        </mxCell>
        <mxCell id="3qQfNFwAXlZ41oWte92f-142" value="db2&lt;br&gt;sessionToken" style="shape=umlLifeline;perimeter=lifelinePerimeter;whiteSpace=wrap;html=1;container=1;collapsible=0;recursiveResize=0;outlineConnect=0;strokeColor=#b46504;fontStyle=0;fillColor=#fad7ac;" parent="1" vertex="1">
          <mxGeometry x="625" y="1480" width="112" height="700" as="geometry"/>
        </mxCell>
        <mxCell id="3qQfNFwAXlZ41oWte92f-143" value="" style="html=1;points=[];perimeter=orthogonalPerimeter;strokeColor=#000000;align=center;" parent="3qQfNFwAXlZ41oWte92f-142" vertex="1">
          <mxGeometry x="53" y="376" width="10" height="50" as="geometry"/>
        </mxCell>
        <mxCell id="3qQfNFwAXlZ41oWte92f-120" value="" style="html=1;points=[];perimeter=orthogonalPerimeter;strokeColor=#000000;align=center;" parent="3qQfNFwAXlZ41oWte92f-142" vertex="1">
          <mxGeometry x="51.5" y="100" width="10" height="30" as="geometry"/>
        </mxCell>
        <mxCell id="3qQfNFwAXlZ41oWte92f-144" value="raging-hub" style="shape=umlLifeline;perimeter=lifelinePerimeter;whiteSpace=wrap;html=1;container=1;collapsible=0;recursiveResize=0;outlineConnect=0;strokeColor=#10739e;fontStyle=0;fillColor=#b1ddf0;" parent="1" vertex="1">
          <mxGeometry x="1350.5" y="1480" width="112" height="700" as="geometry"/>
        </mxCell>
        <mxCell id="3qQfNFwAXlZ41oWte92f-145" value="" style="html=1;points=[];perimeter=orthogonalPerimeter;strokeColor=#000000;align=center;" parent="3qQfNFwAXlZ41oWte92f-144" vertex="1">
          <mxGeometry x="51" y="429" width="10" height="37" as="geometry"/>
        </mxCell>
        <mxCell id="3qQfNFwAXlZ41oWte92f-122" value="" style="html=1;points=[];perimeter=orthogonalPerimeter;strokeColor=#000000;align=center;" parent="3qQfNFwAXlZ41oWte92f-144" vertex="1">
          <mxGeometry x="51" y="140" width="10" height="30" as="geometry"/>
        </mxCell>
        <mxCell id="3qQfNFwAXlZ41oWte92f-148" value="redis校验" style="endArrow=classic;html=1;strokeWidth=1;comic=0;strokeColor=#000000;labelBorderColor=none;labelBackgroundColor=#ffffff;spacingLeft=2;spacingRight=2;exitX=1.1;exitY=0.087;exitDx=0;exitDy=0;exitPerimeter=0;" parent="1" source="3qQfNFwAXlZ41oWte92f-140" target="3qQfNFwAXlZ41oWte92f-143" edge="1">
          <mxGeometry width="50" height="50" relative="1" as="geometry">
            <mxPoint x="866.4300000000001" y="1806.02" as="sourcePoint"/>
            <mxPoint x="1224" y="1806.02" as="targetPoint"/>
          </mxGeometry>
        </mxCell>
        <mxCell id="3qQfNFwAXlZ41oWte92f-149" value="校验失败" style="endArrow=classic;html=1;strokeWidth=1;comic=0;strokeColor=#000000;labelBorderColor=none;labelBackgroundColor=#ffffff;spacingLeft=2;spacingRight=2;entryX=1.05;entryY=0.312;entryDx=0;entryDy=0;entryPerimeter=0;" parent="1" source="3qQfNFwAXlZ41oWte92f-143" target="3qQfNFwAXlZ41oWte92f-140" edge="1">
          <mxGeometry width="50" height="50" relative="1" as="geometry">
            <mxPoint x="1047.83" y="1874.9499999999998" as="sourcePoint"/>
            <mxPoint x="1195" y="1874.9499999999998" as="targetPoint"/>
          </mxGeometry>
        </mxCell>
        <mxCell id="3qQfNFwAXlZ41oWte92f-150" value="重定向到uaa认证" style="endArrow=classic;html=1;strokeWidth=1;comic=0;strokeColor=#000000;labelBorderColor=none;labelBackgroundColor=#ffffff;spacingLeft=2;spacingRight=2;exitX=1.107;exitY=0.377;exitDx=0;exitDy=0;exitPerimeter=0;" parent="1" source="3qQfNFwAXlZ41oWte92f-140" target="3qQfNFwAXlZ41oWte92f-145" edge="1">
          <mxGeometry width="50" height="50" relative="1" as="geometry">
            <mxPoint x="1047.83" y="1874.9499999999998" as="sourcePoint"/>
            <mxPoint x="1195.5" y="1874.9499999999998" as="targetPoint"/>
          </mxGeometry>
        </mxCell>
        <mxCell id="3qQfNFwAXlZ41oWte92f-152" value="认证成功，获取accessToken" style="endArrow=classic;html=1;strokeWidth=1;comic=0;strokeColor=#000000;labelBorderColor=none;labelBackgroundColor=#ffffff;spacingLeft=2;spacingRight=2;entryX=0.95;entryY=0.501;entryDx=0;entryDy=0;entryPerimeter=0;" parent="1" source="3qQfNFwAXlZ41oWte92f-145" target="3qQfNFwAXlZ41oWte92f-140" edge="1">
          <mxGeometry width="50" height="50" relative="1" as="geometry">
            <mxPoint x="1210" y="2006" as="sourcePoint"/>
            <mxPoint x="852" y="1941" as="targetPoint"/>
          </mxGeometry>
        </mxCell>
        <mxCell id="3qQfNFwAXlZ41oWte92f-162" value="去user manager获取数据" style="endArrow=classic;html=1;strokeWidth=1;comic=0;strokeColor=#000000;labelBorderColor=none;labelBackgroundColor=#ffffff;spacingLeft=2;spacingRight=2;exitX=1.033;exitY=0.769;exitDx=0;exitDy=0;exitPerimeter=0;" parent="1" source="3qQfNFwAXlZ41oWte92f-140" target="3qQfNFwAXlZ41oWte92f-153" edge="1">
          <mxGeometry width="50" height="50" relative="1" as="geometry">
            <mxPoint x="851.2199999999998" y="1991.784" as="sourcePoint"/>
            <mxPoint x="1325" y="1991.784" as="targetPoint"/>
          </mxGeometry>
        </mxCell>
        <mxCell id="3qQfNFwAXlZ41oWte92f-163" value="返回数据" style="endArrow=classic;html=1;strokeWidth=1;comic=0;strokeColor=#000000;labelBorderColor=none;labelBackgroundColor=#ffffff;spacingLeft=2;spacingRight=2;entryX=1.282;entryY=0.959;entryDx=0;entryDy=0;entryPerimeter=0;" parent="1" source="3qQfNFwAXlZ41oWte92f-158" target="3qQfNFwAXlZ41oWte92f-138" edge="1">
          <mxGeometry width="50" height="50" relative="1" as="geometry">
            <mxPoint x="1828.5" y="2086.0499999999997" as="sourcePoint"/>
            <mxPoint x="308" y="2086.0499999999997" as="targetPoint"/>
          </mxGeometry>
        </mxCell>
        <mxCell id="3qQfNFwAXlZ41oWte92f-160" value="转发请求" style="endArrow=classic;html=1;strokeWidth=1;comic=0;strokeColor=#000000;labelBorderColor=none;labelBackgroundColor=#ffffff;spacingLeft=2;spacingRight=2;entryX=0.093;entryY=0.171;entryDx=0;entryDy=0;entryPerimeter=0;" parent="1" source="3qQfNFwAXlZ41oWte92f-154" target="3qQfNFwAXlZ41oWte92f-158" edge="1">
          <mxGeometry width="50" height="50" relative="1" as="geometry">
            <mxPoint x="1712" y="2036" as="sourcePoint"/>
            <mxPoint x="1703" y="2036" as="targetPoint"/>
          </mxGeometry>
        </mxCell>
        <mxCell id="3qQfNFwAXlZ41oWte92f-159" value="转到代理" style="endArrow=classic;html=1;strokeWidth=1;comic=0;strokeColor=#000000;labelBorderColor=none;labelBackgroundColor=#ffffff;spacingLeft=2;spacingRight=2;" parent="1" source="3qQfNFwAXlZ41oWte92f-153" target="3qQfNFwAXlZ41oWte92f-154" edge="1">
          <mxGeometry width="50" height="50" relative="1" as="geometry">
            <mxPoint x="1380" y="2116" as="sourcePoint"/>
            <mxPoint x="1855.5" y="2003.3200000000002" as="targetPoint"/>
          </mxGeometry>
        </mxCell>
        <mxCell id="DDRdRkafaV5jgmy42ejv-1" value="&lt;b&gt;api router&lt;/b&gt;" style="rounded=1;whiteSpace=wrap;html=1;comic=1;verticalAlign=middle;align=center;fillColor=#f8cecc;strokeColor=#b85450;opacity=50;" vertex="1" parent="1">
          <mxGeometry x="1081" y="112" width="130" height="31" as="geometry"/>
        </mxCell>
        <mxCell id="3qQfNFwAXlZ41oWte92f-43" value="请求sessionToken" style="endArrow=classic;html=1;strokeWidth=1;comic=0;strokeColor=#000000;labelBorderColor=none;labelBackgroundColor=#ffffff;spacingLeft=2;spacingRight=2;entryX=0.05;entryY=0.072;entryDx=0;entryDy=0;entryPerimeter=0;" parent="1" source="3qQfNFwAXlZ41oWte92f-36" target="3qQfNFwAXlZ41oWte92f-37" edge="1">
          <mxGeometry width="50" height="50" relative="1" as="geometry">
            <mxPoint x="731" y="1011.5300000000002" as="sourcePoint"/>
            <mxPoint x="1090.9499999999998" y="1011.5300000000002" as="targetPoint"/>
            <Array as="points"/>
          </mxGeometry>
        </mxCell>
        <mxCell id="3qQfNFwAXlZ41oWte92f-44" value="生成sessionToken" style="endArrow=classic;html=1;strokeWidth=1;comic=0;strokeColor=#000000;labelBorderColor=none;labelBackgroundColor=#ffffff;spacingLeft=2;spacingRight=2;exitX=0.117;exitY=0.817;exitDx=0;exitDy=0;exitPerimeter=0;" parent="1" source="3qQfNFwAXlZ41oWte92f-37" target="3qQfNFwAXlZ41oWte92f-36" edge="1">
          <mxGeometry width="50" height="50" relative="1" as="geometry">
            <mxPoint x="731" y="1043.5" as="sourcePoint"/>
            <mxPoint x="905.5" y="1043.5" as="targetPoint"/>
          </mxGeometry>
        </mxCell>
        <mxCell id="DDRdRkafaV5jgmy42ejv-9" value="" style="group" vertex="1" connectable="0" parent="1">
          <mxGeometry x="10" y="590" width="200" height="90" as="geometry"/>
        </mxCell>
        <mxCell id="DDRdRkafaV5jgmy42ejv-3" value="raging-hub关键流程时序图" style="rounded=0;whiteSpace=wrap;html=1;verticalAlign=top;fontStyle=1" vertex="1" parent="DDRdRkafaV5jgmy42ejv-9">
          <mxGeometry width="200" height="90" as="geometry"/>
        </mxCell>
        <mxCell id="DDRdRkafaV5jgmy42ejv-4" value="" style="rounded=0;whiteSpace=wrap;html=1;fillColor=#fad7ac;strokeColor=#b46504;" vertex="1" parent="DDRdRkafaV5jgmy42ejv-9">
          <mxGeometry x="10" y="31.83333333333337" width="40" height="17.5" as="geometry"/>
        </mxCell>
        <mxCell id="DDRdRkafaV5jgmy42ejv-5" value="" style="rounded=0;whiteSpace=wrap;html=1;fillColor=#b1ddf0;strokeColor=#10739e;" vertex="1" parent="DDRdRkafaV5jgmy42ejv-9">
          <mxGeometry x="10" y="60.83333333333337" width="40" height="17.5" as="geometry"/>
        </mxCell>
        <mxCell id="DDRdRkafaV5jgmy42ejv-6" value="oauth2-server相关模块" style="text;html=1;resizable=0;points=[];autosize=1;align=left;verticalAlign=top;spacingTop=-4;" vertex="1" parent="DDRdRkafaV5jgmy42ejv-9">
          <mxGeometry x="60" y="59.66666666666663" width="140" height="20" as="geometry"/>
        </mxCell>
        <mxCell id="DDRdRkafaV5jgmy42ejv-7" value="登录相关功能模块" style="text;html=1;resizable=0;points=[];autosize=1;align=left;verticalAlign=top;spacingTop=-4;" vertex="1" parent="DDRdRkafaV5jgmy42ejv-9">
          <mxGeometry x="61" y="30.66666666666663" width="110" height="20" as="geometry"/>
        </mxCell>
        <mxCell id="DDRdRkafaV5jgmy42ejv-10" value="" style="group" vertex="1" connectable="0" parent="1">
          <mxGeometry x="10" y="1430" width="200" height="90" as="geometry"/>
        </mxCell>
        <mxCell id="DDRdRkafaV5jgmy42ejv-11" value="uaa-fronted-proxy关键流程时序图" style="rounded=0;whiteSpace=wrap;html=1;verticalAlign=top;fontStyle=1" vertex="1" parent="DDRdRkafaV5jgmy42ejv-10">
          <mxGeometry width="200" height="90" as="geometry"/>
        </mxCell>
        <mxCell id="DDRdRkafaV5jgmy42ejv-12" value="" style="rounded=0;whiteSpace=wrap;html=1;fillColor=#fad7ac;strokeColor=#b46504;" vertex="1" parent="DDRdRkafaV5jgmy42ejv-10">
          <mxGeometry x="10" y="31.83333333333337" width="40" height="17.5" as="geometry"/>
        </mxCell>
        <mxCell id="DDRdRkafaV5jgmy42ejv-13" value="" style="rounded=0;whiteSpace=wrap;html=1;fillColor=#b1ddf0;strokeColor=#10739e;" vertex="1" parent="DDRdRkafaV5jgmy42ejv-10">
          <mxGeometry x="10" y="60.83333333333337" width="40" height="17.5" as="geometry"/>
        </mxCell>
        <mxCell id="DDRdRkafaV5jgmy42ejv-14" value="raging-hub" style="text;html=1;resizable=0;points=[];autosize=1;align=left;verticalAlign=top;spacingTop=-4;" vertex="1" parent="DDRdRkafaV5jgmy42ejv-10">
          <mxGeometry x="60" y="59.66666666666663" width="70" height="20" as="geometry"/>
        </mxCell>
        <mxCell id="DDRdRkafaV5jgmy42ejv-15" value="uaa-fronted-proxy" style="text;html=1;resizable=0;points=[];autosize=1;align=left;verticalAlign=top;spacingTop=-4;" vertex="1" parent="DDRdRkafaV5jgmy42ejv-10">
          <mxGeometry x="61" y="30.66666666666663" width="110" height="20" as="geometry"/>
        </mxCell>
        <mxCell id="3qQfNFwAXlZ41oWte92f-40" value="登录" style="endArrow=classic;html=1;strokeWidth=1;comic=0;strokeColor=#000000;labelBorderColor=none;labelBackgroundColor=#ffffff;spacingLeft=2;spacingRight=2;entryX=0.145;entryY=0.151;entryDx=0;entryDy=0;entryPerimeter=0;" parent="1" source="3qQfNFwAXlZ41oWte92f-36" target="3qQfNFwAXlZ41oWte92f-38" edge="1">
          <mxGeometry width="50" height="50" relative="1" as="geometry">
            <mxPoint x="666.5" y="1013" as="sourcePoint"/>
            <mxPoint x="842" y="1013" as="targetPoint"/>
            <Array as="points"/>
          </mxGeometry>
        </mxCell>
        <mxCell id="3qQfNFwAXlZ41oWte92f-41" value="返回成功" style="endArrow=classic;html=1;strokeWidth=1;comic=0;strokeColor=#000000;labelBorderColor=none;labelBackgroundColor=#ffffff;spacingLeft=2;spacingRight=2;exitX=0.093;exitY=0.965;exitDx=0;exitDy=0;exitPerimeter=0;" parent="1" source="3qQfNFwAXlZ41oWte92f-38" target="3qQfNFwAXlZ41oWte92f-36" edge="1">
          <mxGeometry width="50" height="50" relative="1" as="geometry">
            <mxPoint x="842" y="1038" as="sourcePoint"/>
            <mxPoint x="666.5" y="1038" as="targetPoint"/>
          </mxGeometry>
        </mxCell>
        <mxCell id="3qQfNFwAXlZ41oWte92f-155" value="获取app token" style="endArrow=classic;html=1;strokeWidth=1;comic=0;strokeColor=#000000;labelBorderColor=none;labelBackgroundColor=#ffffff;spacingLeft=2;spacingRight=2;exitX=0.95;exitY=0.047;exitDx=0;exitDy=0;exitPerimeter=0;" parent="1" source="3qQfNFwAXlZ41oWte92f-153" target="3qQfNFwAXlZ41oWte92f-157" edge="1">
          <mxGeometry width="50" height="50" relative="1" as="geometry">
            <mxPoint x="1148" y="1936" as="sourcePoint"/>
            <mxPoint x="1336" y="1951.02" as="targetPoint"/>
          </mxGeometry>
        </mxCell>
        <mxCell id="3qQfNFwAXlZ41oWte92f-156" value="返回token" style="endArrow=classic;html=1;strokeWidth=1;comic=0;strokeColor=#000000;labelBorderColor=none;labelBackgroundColor=#ffffff;spacingLeft=2;spacingRight=2;exitX=0.067;exitY=0.917;exitDx=0;exitDy=0;exitPerimeter=0;" parent="1" source="3qQfNFwAXlZ41oWte92f-157" target="3qQfNFwAXlZ41oWte92f-153" edge="1">
          <mxGeometry width="50" height="50" relative="1" as="geometry">
            <mxPoint x="1212.5" y="2061" as="sourcePoint"/>
            <mxPoint x="1113" y="2012.7199999999998" as="targetPoint"/>
          </mxGeometry>
        </mxCell>
      </root>
    </mxGraphModel>
  </diagram>
</mxfile>
